:version 1.10
:name ASF
:units
  mass 1
  length 1
  angle deg
:documentation
  ASF file generated by Kaydara
:root
  axis xyz
  order  tx ty tz rx ry rz
  position 0 0 0
  orientation 0 0 0
:bonedata
  begin
    id 1
    name LeftUpLegDummy
    direction 1 -2.30186e-007 -8.31532e-007
    length 2.93387
    axis 0 0 0 xyz
  end
  begin
    id 2
    name LeftUpLeg
    direction -1.82929e-007 -1 -1.48925e-009
    length 17.3336
    axis -3.48766 0.00143442 -0.000521554 xyz
    dof rx ry rz
  end
  begin
    id 3
    name LeftLeg
    direction -1.82929e-007 -1 -5.23717e-011
    length 14.9995
    axis 3.68178 -0.00654042 -0.000282425 xyz
    dof rx ry rz
  end
  begin
    id 4
    name LeftFoot
    direction 8.31532e-007 -4.54534e-011 1
    length 6.74421
    axis 1.87234e-006 4.66016e-005 -5.96866e-006 xyz
    dof rx ry rz
  end
  begin
    id 5
    name LeftToes
    direction 0.00818058 -0.00485161 0.999955
    length 3.85048
    axis 1.06247e-005 4.65869e-005 -5.96999e-006 xyz
    dof rx ry rz
  end
  begin
    id 6
    name SpineDummy
    direction -5.8607e-008 0.943407 -0.331637
    length 5.93572
    axis 0 0 0 xyz
  end
  begin
    id 7
    name Spine
    direction -1.04988e-007 0.999988 0.00495137
    length 10.1015
    axis -0.001389 0.000121417 6.61666e-006 xyz
    dof rx ry rz
  end
  begin
    id 8
    name Spine1
    direction 0 0 0
    length 0
    axis -0.001389 0.00012144 6.56766e-006 xyz
    dof rx ry rz
  end
  begin
    id 9
    name RightShoulderDummy
    direction -0.98348 0.17941 -0.0240696
    length 3.59882
    axis -0.001389 0.00012144 6.56766e-006 xyz
  end
  begin
    id 10
    name RightShoulder
    direction -0.978693 0.204882 0.0135597
    length 2.70001
    axis 0.215806 0.000203631 -0.00679732 xyz
    dof rx ry rz
  end
  begin
    id 11
    name RightArm
    direction -1 3.85509e-006 8.31394e-007
    length 10.2459
    axis -23.2009 -0.134239 -0.964098 xyz
    dof rx ry rz
  end
  begin
    id 12
    name RightForeArm
    direction -1 3.85569e-006 8.3129e-007
    length 8.16799
    axis -9.92322 0.0658061 0.17887 xyz
    dof rx ry rz
  end
  begin
    id 13
    name RightHand
    direction -0.992843 -0.0414604 0.112003
    length 5.28593
    axis -0.00960638 0.00330669 -0.185225 xyz
    dof rx ry rz
  end
  begin
    id 14
    name LeftShoulder1Dummy
    direction 0.983523 0.179172 -0.0240748
    length 3.59866
    axis -0.001389 0.00012144 6.56766e-006 xyz
  end
  begin
    id 15
    name LeftShoulder1
    direction 0.978627 0.205195 0.0135605
    length 2.70019
    axis -0.001389 0.00012144 6.57583e-006 xyz
    dof rx ry rz
  end
  begin
    id 16
    name LeftArm
    direction 1 3.51895e-006 -8.60188e-007
    length 10.2459
    axis -23.1894 0.134785 0.967513 xyz
    dof rx ry rz
  end
  begin
    id 17
    name LeftForeArm
    direction 1 3.51921e-006 -7.32029e-007
    length 8.16799
    axis -9.91835 -0.0656957 -0.177789 xyz
    dof rx ry rz
  end
  begin
    id 18
    name LeftHand
    direction 0.992938 -0.0411636 0.11126
    length 5.32135
    axis -0.00960237 -0.00340661 0.185177 xyz
    dof rx ry rz
  end
  begin
    id 19
    name HEadDummy
    direction 1.01974e-006 0.999861 -0.016675
    length 2.99946
    axis -0.001389 0.00012144 6.56766e-006 xyz
  end
  begin
    id 20
    name HEad
    direction -0.0222689 0.980941 0.193023
    length 5.12695
    axis -0.001389 0.00012144 6.56766e-006 xyz
    dof rx ry rz
  end
  begin
    id 21
    name RightUpLegDummy
    direction -1 2.30186e-007 8.31532e-007
    length 2.93387
    axis 0 0 0 xyz
  end
  begin
    id 22
    name RightUpLeg
    direction -1.82966e-007 -1 1.56832e-007
    length 17.3336
    axis -3.4909 -0.000906625 0.00028951 xyz
    dof rx ry rz
  end
  begin
    id 23
    name RightLeg
    direction -1.82786e-007 -1 -1.80317e-007
    length 14.9995
    axis 3.68513 0.0193739 -0.131021 xyz
    dof rx ry rz
  end
  begin
    id 24
    name RightFoot
    direction 8.31721e-007 -4.63324e-011 1
    length 6.74421
    axis 4.81691e-005 -0.120479 -0.188785 xyz
    dof rx ry rz
  end
  begin
    id 25
    name RightToes
    direction 0.00124746 -0.014064 0.9999
    length 3.85082
    axis 0.000481921 0.542163 -0.142575 xyz
    dof rx ry rz
  end
:hierarchy
  begin
    root LeftUpLegDummy SpineDummy RightUpLegDummy
    LeftUpLegDummy LeftUpLeg
    LeftUpLeg LeftLeg
    LeftLeg LeftFoot
    LeftFoot LeftToes
    SpineDummy Spine
    Spine Spine1
    Spine1 RightShoulderDummy LeftShoulder1Dummy HEadDummy
    RightShoulderDummy RightShoulder
    RightShoulder RightArm
    RightArm RightForeArm
    RightForeArm RightHand
    LeftShoulder1Dummy LeftShoulder1
    LeftShoulder1 LeftArm
    LeftArm LeftForeArm
    LeftForeArm LeftHand
    HEadDummy HEad
    RightUpLegDummy RightUpLeg
    RightUpLeg RightLeg
    RightLeg RightFoot
    RightFoot RightToes
  end

:SAMPLES-PER-SECOND 30
:FULLY-SPECIFIED
:DEGREES
277
root  -0.915335 34.248 -15.5047 -134.437 80.236 -154.869
LeftUpLeg  -32.8794 13.3985 -4.11525
LeftLeg  11.6324 -4.13614 -0.578485
LeftFoot  6.61441 0.0064351 -0.153977
LeftToes  -6.5803 7.65994e-007 1.12379e-007
Spine  12.9656 3.62394 -1.8057
Spine1  23.2055 10.2892 -8.49201
RightShoulder  0.273557 4.09622 -9.27369
RightArm  -5.20784 29.3462 87.2325
RightForeArm  138.708 60.4205 161.511
RightHand  1.20855 -11.5586 -11.522
LeftShoulder1  0.0701157 -6.7516 -0.349647
LeftArm  24.9964 9.14457 -56.3264
LeftForeArm  121.381 -78.6878 -116.797
LeftHand  0.155131 -10.3017 -2.09218
HEad  0.621792 -2.93888 1.50055
RightUpLeg  -33.6724 -9.95281 0.819767
RightLeg  21.7038 2.3953 0.776753
RightFoot  8.4087 -0.0401163 0.928545
RightToes  -34.3154 -0.17732 -0.28307
278
root  -0.967053 34.2132 -15.4175 -137.427 80.0352 -157.386
LeftUpLeg  -32.5291 12.6417 -3.90114
LeftLeg  11.8546 -3.81436 -0.548761
LeftFoot  6.59122 0.00384894 -0.112395
LeftToes  -6.83156 7.65994e-007 1.12379e-007
Spine  12.9757 3.59114 -1.78917
Spine1  23.2453 10.1936 -8.38774
RightShoulder  0.272928 3.94331 -9.26877
RightArm  -4.49981 29.2183 87.4704
RightForeArm  138.516 60.8141 161.205
RightHand  1.18252 -11.4591 -11.3686
LeftShoulder1  0.0764665 -6.79039 -0.677586
LeftArm  24.9138 9.24005 -55.6133
LeftForeArm  123.907 -78.3844 -119.674
LeftHand  0.229623 -10.1533 -2.95628
HEad  1.66086 -1.49707 0.779801
RightUpLeg  -32.8158 -6.99117 -1.09341
RightLeg  21.6283 2.54374 0.821345
RightFoot  7.602 -0.0342631 0.892416
RightToes  -34.312 -0.174713 -0.28079
279
root  -1.03035 34.192 -15.2888 -139.204 79.8516 -158.729
LeftUpLeg  -32.2695 12.2171 -3.60403
LeftLeg  12.0121 -3.6743 -0.539011
LeftFoot  6.69983 0.00328212 -0.0993887
LeftToes  -7.06652 7.65994e-007 1.12379e-007
Spine  12.9935 3.68059 -1.74119
Spine1  23.3243 10.3295 -8.19183
RightShoulder  0.27207 3.93739 -9.31942
RightArm  -3.98855 29.2402 87.5807
RightForeArm  137.466 61.1704 160.924
RightHand  1.18878 -11.7912 -11.0981
LeftShoulder1  0.0820829 -6.74407 -1.01824
LeftArm  25.0631 9.02703 -54.811
LeftForeArm  125.713 -78.151 -121.636
LeftHand  0.271166 -9.95724 -3.48442
HEad  2.47019 -0.112425 -0.434619
RightUpLeg  -32.3599 -3.34698 -2.93144
RightLeg  21.7154 2.6079 0.846435
RightFoot  7.05674 -0.0294361 0.854856
RightToes  -33.469 -0.168524 -0.275339
280
root  -1.08497 34.1749 -15.132 -141.166 79.5386 -160.334
LeftUpLeg  -32.2014 11.967 -3.38881
LeftLeg  12.3416 -3.83317 -0.584776
LeftFoot  6.79439 0.0051417 -0.121073
LeftToes  -7.26291 7.65994e-007 1.12379e-007
Spine  13.0007 3.73802 -1.67771
Spine1  23.4051 10.3848 -7.95851
RightShoulder  0.270992 3.79857 -9.33149
RightArm  -3.10217 29.4569 87.9891
RightForeArm  136.253 61.77 160.434
RightHand  1.16468 -11.96 -10.7085
LeftShoulder1  0.0844008 -6.75354 -1.38219
LeftArm  25.2383 9.01277 -53.9509
LeftForeArm  127.803 -77.9357 -123.292
LeftHand  0.282891 -10.1302 -3.56325
HEad  2.97622 1.45204 -1.56776
RightUpLeg  -32.1817 -1.56983 -4.04444
RightLeg  21.4887 5.06863 1.62364
RightFoot  6.69828 -0.0476475 1.12696
RightToes  -32.4297 -0.161005 -0.268494
281
root  -1.11378 34.1355 -14.9613 -145.245 79.1364 -164.03
LeftUpLeg  -31.9946 11.4914 -3.45021
LeftLeg  12.589 -4.03119 -0.632699
LeftFoot  6.90286 0.00741003 -0.145882
LeftToes  -7.60198 7.65994e-007 1.12379e-007
Spine  12.9926 3.69653 -1.68346
Spine1  23.4094 10.2651 -7.91767
RightShoulder  0.26979 3.89856 -9.62588
RightArm  -2.23177 29.5675 88.4799
RightForeArm  135.099 62.2297 160.044
RightHand  1.18208 -12.2456 -10.6105
LeftShoulder1  0.0856374 -6.65864 -1.7588
LeftArm  25.3196 9.21176 -53.2562
LeftForeArm  129.471 -77.676 -125.128
LeftHand  0.287482 -10.0408 -3.64408
HEad  3.49528 3.42861 -2.88042
RightUpLeg  -31.7373 -1.52908 -4.90848
RightLeg  20.1746 9.93111 2.92341
RightFoot  7.33365 -0.0943234 1.84912
RightToes  -36.2081 -0.188922 -0.292716
282
root  -1.12302 34.0776 -14.7619 -150.382 78.9824 -168.759
LeftUpLeg  -31.5285 11.4193 -3.90436
LeftLeg  12.4172 -4.46123 -0.686198
LeftFoot  7.12134 0.0122411 -0.20708
LeftToes  -8.06835 7.65994e-007 1.12379e-007
Spine  12.9975 3.75772 -1.85511
Spine1  23.3748 10.3781 -8.18698
RightShoulder  0.268366 4.20501 -10.037
RightArm  -1.51555 29.6636 88.9045
RightForeArm  134.109 62.5978 159.723
RightHand  1.18267 -12.4524 -10.4333
LeftShoulder1  0.0859935 -6.50051 -2.00678
LeftArm  25.1537 9.28097 -52.9097
LeftForeArm  130.577 -77.4862 -126.374
LeftHand  0.304861 -9.96748 -3.86756
HEad  4.06514 5.57544 -3.98652
RightUpLeg  -31.0291 -0.644648 -6.34921
RightLeg  18.4255 13.3368 3.47644
RightFoot  7.02437 -0.113144 2.22062
RightToes  -35.8459 -0.186178 -0.290474
283
root  -1.11181 34.0257 -14.5113 -153.842 78.3227 -172.033
LeftUpLeg  -31.3158 11.3199 -4.02317
LeftLeg  12.1949 -5.16482 -0.77341
LeftFoot  7.38867 0.0205853 -0.319227
LeftToes  -9.03565 7.65994e-007 1.12379e-007
Spine  12.8322 3.84281 -1.89169
Spine1  23.1172 10.4692 -8.0542
RightShoulder  0.266555 4.15517 -10.0984
RightArm  -0.534528 29.4972 89.4736
RightForeArm  133.107 62.8587 159.492
RightHand  1.15887 -12.6831 -10.0242
LeftShoulder1  0.08567 -6.37684 -2.2328
LeftArm  25.2022 9.4108 -53.0072
LeftForeArm  130.587 -77.4774 -126.43
LeftHand  0.327396 -9.86026 -4.16694
HEad  4.56945 7.11779 -4.538
RightUpLeg  -30.3929 -0.197995 -7.16331
RightLeg  17.4029 14.9918 3.61789
RightFoot  6.50779 -0.107848 2.27411
RightToes  -36.2387 -0.184 -0.29024
284
root  -1.07192 33.9791 -14.221 -158.298 77.4322 -176.201
LeftUpLeg  -31.0494 11.264 -4.34899
LeftLeg  12.1539 -6.14194 -0.914437
LeftFoot  7.706 0.031866 -0.473153
LeftToes  -9.85273 7.65994e-007 1.12379e-007
Spine  12.7167 3.91986 -1.98374
Spine1  22.9187 10.5725 -8.06628
RightShoulder  0.262556 4.08692 -10.0847
RightArm  0.595931 29.5031 90.1541
RightForeArm  132.222 63.1618 159.216
RightHand  1.18354 -12.9179 -10.0509
LeftShoulder1  0.0848679 -6.20822 -2.49961
LeftArm  25.1009 9.45357 -53.1226
LeftForeArm  129.698 -77.5676 -125.85
LeftHand  0.354454 -9.62011 -4.58356
HEad  5.12451 8.72847 -5.00292
RightUpLeg  -29.7391 -1.71069 -7.07688
RightLeg  17.4769 15.6251 3.78783
RightFoot  5.04533 -0.0680089 1.92083
RightToes  -36.2698 -0.18204 -0.290684
285
root  -1.02725 33.966 -13.9097 -160.853 76.3471 -178.576
LeftUpLeg  -30.7909 10.925 -4.27078
LeftLeg  11.8538 -6.8452 -0.981923
LeftFoot  8.22717 0.0450433 -0.626307
LeftToes  -10.9346 7.65994e-007 1.12379e-007
Spine  12.5504 4.03453 -1.968
Spine1  22.6876 10.7155 -7.82506
RightShoulder  0.255914 4.15137 -10.0665
RightArm  1.47137 29.4837 90.5946
RightForeArm  130.994 63.3514 159.043
RightHand  1.13952 -13.1508 -9.48702
LeftShoulder1  0.083788 -6.0148 -2.70973
LeftArm  24.9826 9.62773 -53.5143
LeftForeArm  128.089 -77.6984 -124.98
LeftHand  0.376352 -9.42582 -4.93622
HEad  5.627 10.4313 -5.4223
RightUpLeg  -29.0776 -2.66287 -6.69819
RightLeg  16.936 15.245 3.54829
RightFoot  4.75998 -0.0586566 1.7885
RightToes  -35.7477 -0.180232 -0.289863
286
root  -0.980316 33.9674 -13.5579 -162.326 75.0776 -179.748
LeftUpLeg  -30.3769 10.2849 -3.80082
LeftLeg  11.3704 -7.29314 -0.983151
LeftFoot  8.92535 0.0603336 -0.773047
LeftToes  -12.1513 7.65994e-007 1.12379e-007
Spine  12.4361 4.13532 -1.84597
Spine1  22.592 10.8295 -7.41839
RightShoulder  0.248953 4.29798 -10.1778
RightArm  2.325 29.6163 90.9239
RightForeArm  130.003 63.5547 158.854
RightHand  1.12102 -13.2812 -9.23218
LeftShoulder1  0.0826312 -5.67521 -2.90447
LeftArm  24.7854 9.84163 -54.1097
LeftForeArm  126.828 -77.8 -124.278
LeftHand  0.387728 -9.36871 -5.10289
HEad  5.69294 11.9926 -5.84374
RightUpLeg  -28.3102 -2.5256 -6.36319
RightLeg  16.3642 13.6572 3.04487
RightFoot  4.42539 -0.0433567 1.53724
RightToes  -35.1095 -0.178504 -0.285863
287
root  -0.924363 33.9748 -13.1857 -162.511 73.564 -179.397
LeftUpLeg  -29.9134 9.39169 -2.81117
LeftLeg  11.1234 -7.59556 -0.990379
LeftFoot  9.57275 0.0754811 -0.901442
LeftToes  -13.6044 7.65994e-007 1.12379e-007
Spine  12.3665 4.23508 -1.55312
Spine1  22.6405 10.9226 -6.69377
RightShoulder  0.24231 4.47737 -10.4264
RightArm  2.75884 29.713 91.1606
RightForeArm  129.504 63.6441 158.77
RightHand  1.08895 -13.3778 -8.89107
LeftShoulder1  0.0815984 -5.30868 -3.25561
LeftArm  24.6295 10.009 -54.7669
LeftForeArm  126.05 -77.8805 -123.703
LeftHand  0.381603 -9.29256 -5.06654
HEad  5.79879 13.6265 -6.28586
RightUpLeg  -27.612 -2.95205 -5.53153
RightLeg  16.3959 12.7719 2.85833
RightFoot  4.10423 -0.0344858 1.37709
RightToes  -34.5924 -0.17679 -0.283835
288
root  -0.847861 33.9804 -12.8208 -162.571 72.0249 -178.914
LeftUpLeg  -29.476 8.53475 -1.79733
LeftLeg  10.912 -7.96654 -1.00857
LeftFoot  10.1571 0.0928429 -1.04468
LeftToes  -14.9087 7.65994e-007 1.12379e-007
Spine  12.237 4.36363 -1.27599
Spine1  22.5745 11.0574 -5.95094
RightShoulder  0.23524 4.59333 -10.5294
RightArm  3.08967 29.6571 91.3407
RightForeArm  129.123 63.6622 158.755
RightHand  1.04079 -13.49 -8.40912
LeftShoulder1  0.0808906 -5.20635 -3.52666
LeftArm  24.1821 10.4093 -55.4899
LeftForeArm  123.765 -78.0502 -122.439
LeftHand  0.420122 -9.04012 -5.68487
HEad  6.18734 15.2994 -6.51236
RightUpLeg  -27.0317 -3.89748 -4.58078
RightLeg  16.7226 12.554 2.88483
RightFoot  3.65812 -0.0281984 1.24973
RightToes  -34.3445 -0.17579 -0.282471
289
root  -0.761029 33.9804 -12.4599 -162.747 70.4508 -178.582
LeftUpLeg  -29.0572 7.78298 -0.893021
LeftLeg  10.6016 -8.48891 -1.02759
LeftFoot  10.7607 0.115761 -1.22908
LeftToes  -16.0696 7.65994e-007 1.12379e-007
Spine  12.0807 4.46965 -1.01312
Spine1  22.454 11.1356 -5.21401
RightShoulder  0.227946 4.59953 -10.6662
RightArm  3.72765 29.6185 91.6031
RightForeArm  128.714 63.7038 158.716
RightHand  1.00286 -13.4966 -8.08619
LeftShoulder1  0.0800664 -5.01125 -3.79197
LeftArm  23.7934 10.7314 -56.258
LeftForeArm  121.448 -78.3024 -120.398
LeftHand  0.436797 -8.9098 -5.97659
HEad  6.61981 16.8 -6.55255
RightUpLeg  -26.5351 -4.92364 -3.62995
RightLeg  17.1538 12.1993 2.90041
RightFoot  3.11148 -0.0204345 1.09353
RightToes  -34.164 -0.17362 -0.27984
290
root  -0.674418 33.9829 -12.0899 -162.718 68.9203 -178.108
LeftUpLeg  -28.749 7.1075 0.048269
LeftLeg  10.2894 -9.04321 -1.04428
LeftFoot  11.365 0.142541 -1.43244
LeftToes  -17.4559 7.65994e-007 1.12379e-007
Spine  11.9055 4.58898 -0.788703
Spine1  22.28 11.2455 -4.54987
RightShoulder  0.219382 4.73493 -10.7553
RightArm  4.29402 29.5773 91.931
RightForeArm  128.111 63.7186 158.705
RightHand  0.968829 -13.5792 -7.75026
LeftShoulder1  0.0788189 -4.74004 -3.99159
LeftArm  23.554 10.9512 -56.9778
LeftForeArm  119.475 -78.5281 -118.378
LeftHand  0.438711 -8.80388 -6.06906
HEad  7.02021 18.4887 -6.67658
RightUpLeg  -26.1808 -5.92943 -2.57381
RightLeg  17.6023 11.7967 2.90285
RightFoot  2.62877 -0.0141431 0.955619
RightToes  -33.2688 -0.167066 -0.274031
